<?xml version="1.0" encoding="UTF-8" standalone="no"?>
<svg
   xmlns:dc="http://purl.org/dc/elements/1.1/"
   xmlns:cc="http://creativecommons.org/ns#"
   xmlns:rdf="http://www.w3.org/1999/02/22-rdf-syntax-ns#"
   xmlns:svg="http://www.w3.org/2000/svg"
   xmlns="http://www.w3.org/2000/svg"
   xmlns:sodipodi="http://sodipodi.sourceforge.net/DTD/sodipodi-0.dtd"
   xmlns:inkscape="http://www.inkscape.org/namespaces/inkscape"
   data-name="Layer 1"
   width="773.97946"
   height="419.08428"
   viewBox="0 0 773.97946 419.08428"
   version="1.1"
   id="svg70"
   sodipodi:docname="payment.svg"
   inkscape:version="0.92.4 (5da689c313, 2019-01-14)">
  <metadata
     id="metadata76">
    <rdf:RDF>
      <cc:Work
         rdf:about="">
        <dc:format>image/svg+xml</dc:format>
        <dc:type
           rdf:resource="http://purl.org/dc/dcmitype/StillImage" />
      </cc:Work>
    </rdf:RDF>
  </metadata>
  <defs
     id="defs74" />
  <sodipodi:namedview
     pagecolor="#ffffff"
     bordercolor="#666666"
     borderopacity="1"
     objecttolerance="10"
     gridtolerance="10"
     guidetolerance="10"
     inkscape:pageopacity="0"
     inkscape:pageshadow="2"
     inkscape:window-width="1366"
     inkscape:window-height="745"
     id="namedview72"
     showgrid="false"
     inkscape:zoom="0.50430661"
     inkscape:cx="431.61177"
     inkscape:cy="-158.19607"
     inkscape:window-x="-8"
     inkscape:window-y="-8"
     inkscape:window-maximized="1"
     inkscape:current-layer="svg70" />
  <rect
     style="opacity:1;fill:#000000;fill-opacity:1;fill-rule:nonzero;stroke:none;stroke-width:0;stroke-linecap:square;stroke-linejoin:miter;stroke-miterlimit:4;stroke-dasharray:none;stroke-dashoffset:0;stroke-opacity:1;paint-order:markers fill stroke"
     id="rect1004"
     width="411.45602"
     height="285.54059"
     x="-247.86508"
     y="256.4848" />
  <path
     d="m 130.86958,69.078191 v 0.283554 a 9.8199665,9.8199665 0 0 1 -9.82145,9.818334 H 10.192248 A 9.8192689,9.8192689 0 0 1 0.37398786,69.361745 v -0.283554 z"
     data-darkreader-inline-fill=""
     style="fill:#f2f2f2;stroke-width:0.31159425"
     id="path2"
     inkscape:connector-curvature="0" />
  <path
     d="M 23.559597,22.339059 C 15.548509,24.317683 8.3569139,18.154349 7.1012449,12.436595 l 0.5577537,-0.09971 C 14.411233,10.844342 21.948679,15.670933 23.559597,22.339059 Z"
     data-darkreader-inline-fill=""
     style="fill:#1193f3;stroke-width:0.31159425"
     id="path4"
     inkscape:connector-curvature="0" />
  <path
     d="m 217.20279,128.22861 c -2.31688,-1.00041 -2.84322,-4.64533 -0.90402,-6.26032 1.93922,-1.615 5.42874,-0.43788 5.99344,2.02177 l -2.16136,-15.4608 c -0.4969,-3.55447 -0.8945,-7.5279 1.25361,-10.403107 2.01155,-2.692435 5.94123,-3.555049 9.09595,-2.396035 3.15473,1.159021 5.48633,4.050245 6.47553,7.262272 0.98921,3.21202 0.7558,6.70258 -0.10802,9.95057 -0.86381,3.24799 -2.33122,6.2988 -3.81532,9.31428 -1.52076,3.08996 -3.36525,6.43842 -6.61593,7.57582 -3.10531,1.08652 -9.21388,-1.60445 -9.21388,-1.60445 z"
     data-darkreader-inline-fill=""
     style="fill:#f2f2f2;stroke-width:0.31159425"
     id="path6"
     inkscape:connector-curvature="0" />
  <path
     d="m 227.35629,95.436878 a 42.147642,42.147642 0 0 1 2.00114,13.723802 43.309604,43.309604 0 0 1 -2.46508,13.59112 41.315943,41.315943 0 0 1 -3.32447,7.13529 0.46774034,0.46774034 0 0 0 0.80716,0.4718 42.971817,42.971817 0 0 0 5.0316,-13.18817 44.090372,44.090372 0 0 0 0.56475,-14.18011 42.591211,42.591211 0 0 0 -1.71371,-7.802244 c -0.18361,-0.570337 -1.08649,-0.326439 -0.90139,0.248506 z"
     data-darkreader-inline-fill=""
     style="fill:#ffffff;stroke-width:0.31159425"
     id="path8"
     inkscape:connector-curvature="0" />
  <path
     d="m 215.82921,122.53727 7.39837,7.77477 c 0.41554,0.43669 1.07584,-0.22504 0.661,-0.66099 l -7.39838,-7.77476 c -0.41554,-0.43668 -1.07583,0.22504 -0.66099,0.66098 z"
     data-darkreader-inline-fill=""
     style="fill:#ffffff;stroke-width:0.31159425"
     id="path10"
     inkscape:connector-curvature="0" />
  <path
     d="m 209.54432,93.181569 a 1.0932252,1.0932252 0 0 1 -0.7176,-0.266723 51.423198,51.423198 0 0 1 -12.04666,-10.908384 1.1018875,1.1018875 0 0 1 -0.0582,-1.538799 l 2.24262,-2.476479 0.46192,0.418403 -2.24263,2.476473 a 0.47864613,0.47864613 0 0 0 0.0335,0.675987 l 0.0328,0.03454 a 50.798255,50.798255 0 0 0 11.93338,10.806753 l 0.0408,0.03119 a 0.47863055,0.47863055 0 0 0 0.67598,-0.03351 l 4.37557,-4.832136 a 0.47844048,0.47844048 0 0 0 -0.01,-0.653013 c -1.01397,-0.552454 -2.00324,-1.154782 -2.94121,-1.790602 l 0.34964,-0.515774 c 0.93257,0.632168 1.91696,1.230557 2.92591,1.778739 l 0.0604,0.04286 a 1.1016289,1.1016289 0 0 1 0.0771,1.55615 l -4.37556,4.832142 a 1.0942317,1.0942317 0 0 1 -0.76215,0.360736 q -0.0279,0.0014 -0.0556,0.0014 z"
     data-darkreader-inline-fill=""
     style="fill:#3f3d56;stroke-width:0.31159425"
     id="path12"
     inkscape:connector-curvature="0" />
  <path
     d="m 204.72061,85.046959 c 1.37418,1.243259 2.78564,1.925649 3.15337,1.520575 a 0.50796092,0.50796092 0 0 0 0.056,-0.47674 3.6574931,3.6574931 0 0 0 -0.70109,-1.249485 q -1.83214,-1.304046 -3.56142,-2.813701 c -0.3615,-0.118407 -0.63886,-0.115288 -0.77276,0.03426 a 0.28419575,0.28419575 0 0 0 -0.0467,0.07167 c -0.23064,0.470502 0.5701,1.73247 1.87262,2.913407 z"
     data-darkreader-inline-fill=""
     style="fill:#1193f3;stroke-width:0.31159425"
     id="path14"
     inkscape:connector-curvature="0" />
  <path
     d="m 196.43842,75.029193 a 1.0773402,1.0773402 0 0 0 0.34278,0.744713 53.996845,53.996845 0 0 0 6.06681,6.359632 48.252775,48.252775 0 0 0 5.08197,3.957249 c 0.29607,0.202537 0.59519,0.398842 0.8975,0.592028 a 1.0816558,1.0816558 0 0 0 0.71661,0.267972 c 0.0187,0 0.0375,-0.0034 0.0561,-0.0034 a 1.0947739,1.0947739 0 0 0 0.76332,-0.361445 l 4.37479,-4.829713 a 1.103377,1.103377 0 0 0 -0.0779,-1.557972 l -0.0592,-0.04361 A 33.701543,33.701543 0 0 1 202.70144,69.382918 l -0.0467,-0.05611 a 1.1035078,1.1035078 0 0 0 -1.55797,0.0779 l -4.37478,4.829713 a 1.0984475,1.0984475 0 0 0 -0.2836,0.794565 z m 0.62318,-0.03112 a 0.47432121,0.47432121 0 0 1 0.12157,-0.342758 l 4.37478,-4.832825 a 0.47411243,0.47411243 0 0 1 0.33336,-0.15579 0.46742251,0.46742251 0 0 1 0.31782,0.09971 34.336719,34.336719 0 0 0 12.05557,10.91826 0.47740911,0.47740911 0 0 1 0.0124,0.651232 l -4.37784,4.832831 a 0.46178265,0.46178265 0 0 1 -0.33031,0.155797 0.48623345,0.48623345 0 0 1 -0.34582,-0.121506 l -0.0407,-0.03112 q -0.9907,-0.635649 -1.9537,-1.330502 -1.83213,-1.304047 -3.56142,-2.813695 a 53.413695,53.413695 0 0 1 -6.41887,-6.661888 l -0.0312,-0.03426 a 0.48766055,0.48766055 0 0 1 -0.15579,-0.333414 z"
     data-darkreader-inline-fill=""
     style="fill:#3f3d56;stroke-width:0.31159425"
     id="path16"
     inkscape:connector-curvature="0" />
  <ellipse
     cx="79.979866"
     cy="204.65314"
     rx="0.9876914"
     ry="3.3581479"
     transform="rotate(-47.83838)"
     data-darkreader-inline-fill=""
     style="fill:#1193f3;stroke-width:0.31159425"
     id="ellipse18" />
  <polygon
     points="578.906,359.262 578.904,406.55 566.645,406.549 560.812,359.261 "
     data-darkreader-inline-fill=""
     style="fill:#ffb8b8"
     id="polygon20"
     transform="matrix(0.31159423,0,0,0.31159423,0,-1.9201248e-5)" />
  <path
     d="m 181.35743,130.38159 -12.31748,-4.5e-4 v -0.15581 a 4.7942045,4.7942045 0 0 1 4.79434,-4.79425 h 3.1e-4 l 7.52307,3.1e-4 z"
     data-darkreader-inline-fill=""
     style="fill:#2f2e41;stroke-width:0.31159425"
     id="path22"
     inkscape:connector-curvature="0" />
  <polygon
     points="614.906,359.262 614.904,406.55 602.645,406.549 596.812,359.261 "
     data-darkreader-inline-fill=""
     style="fill:#ffb8b8"
     id="polygon24"
     transform="matrix(0.31159423,0,0,0.31159423,0,-1.9201248e-5)" />
  <path
     d="m 192.57483,130.38159 -12.31749,-4.5e-4 v -0.15581 a 4.7942045,4.7942045 0 0 1 4.79434,-4.79425 h 3.1e-4 l 7.52307,3.1e-4 z"
     data-darkreader-inline-fill=""
     style="fill:#2f2e41;stroke-width:0.31159425"
     id="path26"
     inkscape:connector-curvature="0" />
  <path
     d="m 194.16435,67.130507 -0.91217,54.122023 a 1.2463769,1.2463769 0 0 1 -1.35904,1.22026 l -4.4702,-0.40638 a 1.2463769,1.2463769 0 0 1 -1.12982,-1.14493 l -2.61703,-33.759754 a 0.31159423,0.31159423 0 0 0 -0.62203,0.01229 L 181.746,121.70667 a 1.2463769,1.2463769 0 0 1 -1.24548,1.1992 h -4.79407 a 1.2463769,1.2463769 0 0 1 -1.24406,-1.17035 l -3.35602,-54.916611 19.94203,-4.985505 z"
     data-darkreader-inline-fill=""
     style="fill:#2f2e41;stroke-width:0.31159425"
     id="path28"
     inkscape:connector-curvature="0" />
  <circle
     cx="179.69974"
     cy="8.6575203"
     r="7.6530752"
     data-darkreader-inline-fill=""
     style="fill:#ffb8b8;stroke-width:0.31159425"
     id="circle30" />
  <path
     d="m 170.42354,68.740518 a 1.3925956,1.3925956 0 0 1 -0.42517,-0.986195 l -0.51623,-36.905964 a 8.8806969,8.8806969 0 0 1 6.00817,-8.550586 c 0.71697,-3.252872 4.53301,-3.66032 6.75761,-3.611633 a 3.453966,3.453966 0 0 1 2.79735,1.533933 l 1.59472,2.392034 3.51487,2.060357 a 8.8891604,8.8891604 0 0 1 4.19724,9.602213 l -0.54111,2.461413 A 56.566835,56.566835 0 0 0 194.34,63.115707 l 1.08891,4.151748 a 1.4019996,1.4019996 0 0 1 -1.46387,1.753635 l -1.26463,-0.09738 a 1.4002546,1.4002546 0 0 1 -1.28769,-1.258242 l -0.20927,-2.092914 a 0.1558127,0.1558127 0 0 0 -0.31008,0 l -0.20258,2.026273 a 1.4020214,1.4020214 0 0 1 -1.37364,1.262506 L 171.422,69.136719 c -0.008,0 -0.0148,3.14e-4 -0.0222,3.14e-4 a 1.3932406,1.3932406 0 0 1 -0.97618,-0.396515 z"
     data-darkreader-inline-fill=""
     style="fill:#3f3d56;stroke-width:0.31159425"
     id="path32"
     inkscape:connector-curvature="0" />
  <path
     d="m 180.2984,13.068909 c 0.0313,1.081856 0.78247,1.707739 1.70459,2.274402 0.92212,0.566663 2.00005,0.812364 3.0561,1.049371 a 0.93435585,0.93435585 0 0 0 1.37262,-0.817801 l 0.96856,-3.684053 a 23.319983,23.319983 0 0 0 0.74566,-3.5948628 c 0.23326,-2.3398047 -0.32125,-4.8568378 -1.95439,-6.5485702 -1.63313,-1.69173232 -4.4654,-2.29269478 -6.42245,-0.98924311 -2.3225,-2.96630859 -12.93847,3.58738441 -10.31973,5.65007911 0.46587,0.3669551 1.17802,-0.09737 1.76935,-0.142377 0.59134,-0.045009 1.25403,0.059007 1.62964,0.5179289 0.49075,0.5995694 0.27701,1.4926985 0.47923,2.2406399 a 2.0921465,2.0921465 0 0 0 2.64348,1.3549182 7.1946048,7.1946048 0 0 0 1.37098,-0.8813763 c 0.45356,-0.3021153 1.02671,-0.5253474 1.5373,-0.3348075 0.67301,0.2511664 0.9121,1.0751278 0.97293,1.7909028 a 16.587189,16.587189 0 0 0 0.44613,2.114849 z"
     data-darkreader-inline-fill=""
     style="fill:#2f2e41;stroke-width:0.31159425"
     id="path34"
     inkscape:connector-curvature="0" />
  <polygon
     points="578.896,157.768 572.896,107.768 568.896,156.768 547.896,207.768 "
     id="polygon36"
     transform="matrix(0.31159423,0,0,0.31159423,0,-1.9201248e-5)"
     style="opacity:0.2" />
  <path
     d="m 169.19116,70.657199 a 3.1333169,3.1333169 0 0 0 0.099,-4.803562 l 4.16868,-10.324984 -5.67173,1.145333 -3.08911,9.629196 a 3.1503049,3.1503049 0 0 0 4.49318,4.354017 z"
     data-darkreader-inline-fill=""
     style="fill:#ffb8b8;stroke-width:0.31159425"
     id="path38"
     inkscape:connector-curvature="0" />
  <path
     d="m 168.88763,66.103512 -3.21055,-1.157084 a 1.4095775,1.4095775 0 0 1 -0.87716,-1.688725 l 5.29625,-19.387183 0.80748,-17.521723 a 3.9942798,3.9942798 0 1 1 7.97307,0.483367 l -1.44217,19.185904 -6.74838,19.231037 a 1.4049784,1.4049784 0 0 1 -1.42588,0.934596 1.4091382,1.4091382 0 0 1 -0.37266,-0.08019 z"
     data-darkreader-inline-fill=""
     style="fill:#3f3d56;stroke-width:0.31159425"
     id="path40"
     inkscape:connector-curvature="0" />
  <path
     d="m 201.97438,71.669856 a 3.1333231,3.1333231 0 0 0 -1.7594,-4.470842 l -0.13119,-11.133999 -4.79257,3.242136 0.85932,10.075978 a 3.1503019,3.1503019 0 0 0 5.82384,2.286734 z"
     data-darkreader-inline-fill=""
     style="fill:#ffb8b8;stroke-width:0.31159425"
     id="path42"
     inkscape:connector-curvature="0" />
  <path
     d="m 199.93982,67.584673 -3.40849,0.169206 a 1.4095713,1.4095713 0 0 1 -1.46007,-1.220388 L 192.48907,46.602469 186.48341,30.12234 a 3.9942828,3.9942828 0 1 1 7.54379,-2.625841 l 6.06115,18.260356 1.182,20.346412 a 1.4049784,1.4049784 0 0 1 -0.95572,1.41181 1.4089637,1.4089637 0 0 1 -0.37481,0.0696 z"
     data-darkreader-inline-fill=""
     style="fill:#3f3d56;stroke-width:0.31159425"
     id="path44"
     inkscape:connector-curvature="0" />
  <path
     d="M 240.85595,130.53972 H 122.13854 a 0.31159644,0.31159644 0 0 1 0,-0.62319 h 118.71741 a 0.31159644,0.31159644 0 0 1 0,0.62319 z"
     data-darkreader-inline-fill=""
     style="fill:#3f3d56;stroke-width:0.31159425"
     id="path46"
     inkscape:connector-curvature="0" />
  <path
     d="m 100.71303,63.266992 c -1.789621,0 -3.212791,-0.532206 -4.230492,-1.58201 -2.300063,-2.372863 -2.155979,-6.946514 -2.0402,-10.621592 0.03365,-1.069128 0.06546,-2.07907 0.03331,-2.924998 l -2.25e-4,-0.01278 a 6.2743767,6.2743767 0 0 1 6.240247,-6.243448 h 14.83677 c 1.78733,0 3.20905,0.531446 4.22608,1.57988 2.29998,2.370886 2.15749,6.943472 2.04308,10.617639 -0.0334,1.07141 -0.065,2.083481 -0.0322,2.930934 a 6.2783124,6.2783124 0 0 1 -6.24322,6.256372 z M 95.098621,48.121198 c 0.03256,0.866167 5.32e-4,1.884173 -0.03351,2.961819 -0.112059,3.557469 -0.251502,7.984915 1.864849,10.168194 0.908385,0.937069 2.145857,1.392591 3.78295,1.392591 h 14.83237 a 5.651132,5.651132 0 0 0 5.62116,-5.622093 c -0.0334,-0.856261 -10e-4,-1.878849 0.0323,-2.961514 0.11076,-3.556557 0.24868,-7.98293 -1.86752,-10.164243 -0.90762,-0.935695 -2.14388,-1.39061 -3.77868,-1.39061 H 100.7166 a 5.6496646,5.6496646 0 0 0 -5.61797,5.615856 z"
     data-darkreader-inline-fill=""
     style="fill:#3f3d56;stroke-width:0.31159425"
     id="path48"
     inkscape:connector-curvature="0" />
  <path
     d="M 20.281696,22.912483 A 13.903002,13.903002 0 0 1 12.936175,20.760991 C 9.7146827,18.759212 7.2822538,15.553198 6.5881645,12.394504 L 6.518598,12.077887 7.3891736,11.922091 C 14.242119,10.409612 21.993215,15.283597 23.653732,22.153732 l 0.0728,0.30125 -0.300869,0.0744 a 13.081695,13.081695 0 0 1 -3.143967,0.383101 z M 7.2722136,12.576177 c 0.7477578,2.897614 3.0171664,5.806334 5.9928914,7.655511 a 12.989772,12.989772 0 0 0 9.704874,1.764434 C 21.232667,15.595509 13.957901,11.104015 7.5176528,12.53207 Z"
     data-darkreader-inline-fill=""
     style="fill:#3f3d56;stroke-width:0.31159425"
     id="path50"
     inkscape:connector-curvature="0" />
  <path
     d="m 11.637316,58.322718 c -2.0386398,0 -3.6948846,-0.912268 -4.6672586,-2.576437 a 6.469335,6.469335 0 0 1 -0.00198,-6.343408 C 7.955997,47.710252 9.6517362,46.792056 11.745983,46.824156 h 19.7687 c 2.08717,-0.02663 3.784165,0.887467 4.772688,2.582063 a 6.4693195,6.4693195 0 0 1 -5.87e-4,6.342503 c -0.988109,1.690637 -2.684646,2.593626 -4.776802,2.573238 H 11.740927 q -0.05198,5.34e-4 -0.103611,5.34e-4 z m 0.01156,-10.876134 c -1.8180653,0 -3.2866519,0.803938 -4.1425826,2.270469 a 5.8281114,5.8281114 0 0 0 0.00184,5.714745 c 0.8703481,1.489809 2.3690196,2.296179 4.2280876,2.266971 h 19.778442 c 1.861006,0.02965 3.36432,-0.776404 4.234061,-2.26454 a 5.8283016,5.8283016 0 0 0 3.4e-4,-5.713979 C 34.878758,48.228308 33.375141,47.424982 31.51908,47.447345 H 11.739444 c -0.0302,-4.55e-4 -0.06056,-7.51e-4 -0.09058,-7.51e-4 z"
     data-darkreader-inline-fill=""
     style="fill:#3f3d56;stroke-width:0.31159425"
     id="path52"
     inkscape:connector-curvature="0" />
  <path
     d="m 105.78624,49.29196 h -6.231884 a 1.5579712,1.5579712 0 0 1 0,-3.115941 h 6.231884 a 1.5579712,1.5579712 0 0 1 0,3.115941 z"
     data-darkreader-inline-fill=""
     style="fill:#1193f3;stroke-width:0.31159425"
     id="path54"
     inkscape:connector-curvature="0" />
  <path
     d="m 105.78624,54.27747 h -6.231884 a 1.5579725,1.5579725 0 0 1 0,-3.115945 h 6.231884 a 1.5579725,1.5579725 0 0 1 0,3.115945 z"
     data-darkreader-inline-fill=""
     style="fill:#1193f3;stroke-width:0.31159425"
     id="path56"
     inkscape:connector-curvature="0" />
  <path
     d="m 105.78624,59.262976 h -6.231884 a 1.5579712,1.5579712 0 0 1 0,-3.115941 h 6.231884 a 1.5579712,1.5579712 0 0 1 0,3.115941 z"
     data-darkreader-inline-fill=""
     style="fill:#1193f3;stroke-width:0.31159425"
     id="path58"
     inkscape:connector-curvature="0" />
  <path
     d="m 116.69204,49.29196 h -6.23189 a 1.5579712,1.5579712 0 0 1 0,-3.115941 h 6.23189 a 1.5579712,1.5579712 0 0 1 0,3.115941 z"
     data-darkreader-inline-fill=""
     style="fill:#1193f3;stroke-width:0.31159425"
     id="path60"
     inkscape:connector-curvature="0" />
  <path
     d="m 116.69204,54.27747 h -6.23189 a 1.5579725,1.5579725 0 0 1 0,-3.115945 h 6.23189 a 1.5579725,1.5579725 0 0 1 0,3.115945 z"
     data-darkreader-inline-fill=""
     style="fill:#1193f3;stroke-width:0.31159425"
     id="path62"
     inkscape:connector-curvature="0" />
  <path
     d="m 116.69204,59.262976 h -6.23189 a 1.5579712,1.5579712 0 0 1 0,-3.115941 h 6.23189 a 1.5579712,1.5579712 0 0 1 0,3.115941 z"
     data-darkreader-inline-fill=""
     style="fill:#1193f3;stroke-width:0.31159425"
     id="path64"
     inkscape:connector-curvature="0" />
  <rect
     x="0.37397537"
     y="27.150358"
     width="130.49561"
     height="0.6231885"
     data-darkreader-inline-fill=""
     style="fill:#3f3d56;stroke-width:0.31159425"
     id="rect66" />
  <path
     d="M 120.58697,79.360802 H 10.28261 A 10.294244,10.294244 0 0 1 0,69.078191 V 15.483986 A 10.294244,10.294244 0 0 1 10.28261,5.2013766 H 120.58697 A 10.294244,10.294244 0 0 1 130.86958,15.483986 V 69.078191 A 10.294244,10.294244 0 0 1 120.58697,79.360802 Z M 10.28261,5.824565 A 9.6704145,9.6704145 0 0 0 0.62318847,15.483986 V 69.078191 A 9.6704179,9.6704179 0 0 0 10.28261,78.737616 h 110.30436 a 9.6703893,9.6703893 0 0 0 9.65942,-9.659425 V 15.483986 a 9.6703893,9.6703893 0 0 0 -9.65942,-9.659421 z"
     data-darkreader-inline-fill=""
     style="fill:#3f3d56;stroke-width:0.31159425"
     id="path68"
     inkscape:connector-curvature="0" />
  <g
     id="g1002"
     transform="matrix(0.30601631,0,0,0.30601631,299.6417,217.7929)">
    <path
       id="path886"
       style="fill:#f1f1f1"
       data-darkreader-inline-fill=""
       transform="translate(-148.09646,-195.42742)"
       d="m 216.09567,704.318 -0.95117,-1.75879 c 12.75342,-6.89746 28.62573,-15.481 36.916,-29.56738 8.17236,-13.88623 8.35571,-32.74268 0.47851,-49.21094 -6.70361,-14.01562 -19.01782,-26.57226 -35.61108,-36.313 -3.273,-1.92138 -6.70874,-3.74218 -10.0315,-5.50341 -8.03149,-4.25635 -16.33642,-8.65821 -23.18432,-14.90284 -9.43164,-8.60107 -16.56787,-23.03466 -11.249,-35.89111 a 23.85567,23.85567 0 0 1 20.6775,-14.46728 l 0.11279,1.99707 a 21.86061,21.86061 0 0 0 -18.94776,13.248 c -4.94262,11.94727 1.83863,25.50489 10.75415,33.63574 6.66065,6.07374 14.85181,10.415 22.7732,14.61329 3.34155,1.771 6.79712,3.60254 10.10766,5.54589 16.93848,9.94336 29.52637,22.79786 36.40259,37.17432 8.1604,17.06055 7.94629,36.63672 -0.55908,51.08887 -8.57276,14.56601 -24.71656,23.29696 -37.68849,30.31157 z"
       inkscape:connector-curvature="0" />
    <ellipse
       id="ellipse888"
       style="fill:#f1f1f1"
       data-darkreader-inline-fill=""
       ry="8.5"
       rx="17.5"
       cy="323.31702"
       cx="57.719921" />
    <ellipse
       id="ellipse890"
       style="fill:#f1f1f1"
       data-darkreader-inline-fill=""
       ry="8.5"
       rx="17.5"
       cy="379.31702"
       cx="71.719917" />
    <ellipse
       id="ellipse892"
       style="fill:#f1f1f1"
       data-darkreader-inline-fill=""
       ry="8.5"
       rx="17.5"
       cy="388.31702"
       cx="39.719921" />
    <ellipse
       id="ellipse894"
       style="fill:#f1f1f1"
       data-darkreader-inline-fill=""
       ry="8.5"
       rx="17.5"
       cy="435.31702"
       cx="89.719917" />
    <ellipse
       id="ellipse896"
       style="fill:#f1f1f1"
       data-darkreader-inline-fill=""
       ry="8.5"
       rx="17.5"
       cy="435.31702"
       cx="124.71992" />
    <rect
       style="fill:#e6e6e6"
       data-darkreader-inline-fill=""
       height="267.05643"
       width="562.79596"
       y="15.42942"
       x="341.01114"
       data-name="Rectangle 62"
       id="bc1144e2-c94b-4f66-aa77-0b454dfd4174" />
    <rect
       style="fill:#ffffff"
       data-darkreader-inline-fill=""
       height="222.81354"
       width="530.61005"
       y="38.329979"
       x="357.10446"
       data-name="Rectangle 75"
       id="ad6bb9d5-2e55-4525-b077-6ac2d5f26b45" />
    <rect
       style="fill:#1193f3"
       data-darkreader-inline-fill=""
       height="23.909241"
       width="562.79596"
       x="340.77115"
       data-name="Rectangle 80"
       id="a1fdfaec-ef9f-458a-9330-7bb8c38fec43"
       y="0" />
    <circle
       style="fill:#ffffff"
       data-darkreader-inline-fill=""
       r="4.4314899"
       cy="11.05913"
       cx="358.5387"
       data-name="Ellipse 90"
       id="ac9f2818-2064-46b1-8104-b7d94390836e" />
    <circle
       style="fill:#ffffff"
       data-darkreader-inline-fill=""
       r="4.4314899"
       cy="11.05913"
       cx="375.35916"
       data-name="Ellipse 91"
       id="bd067119-2054-4d5f-9303-2e8fa40cc410" />
    <circle
       style="fill:#ffffff"
       data-darkreader-inline-fill=""
       r="4.4314899"
       cy="11.05913"
       cx="392.18042"
       data-name="Ellipse 92"
       id="ee5e9ca0-6fca-449b-8f84-cf683813bd65" />
    <path
       style="fill:#e6e6e6"
       data-darkreader-inline-fill=""
       transform="translate(-148.09646,-195.42742)"
       d="m 742.52881,286.63529 a 2.14688,2.14688 0 0 0 0,4.29376 h 117.80392 a 2.14688,2.14688 0 0 0 0,-4.29376 z"
       data-name="Path 142"
       id="acae6c4c-8028-4596-98db-d9926d2ed09f-160"
       inkscape:connector-curvature="0" />
    <path
       style="fill:#e6e6e6"
       data-darkreader-inline-fill=""
       transform="translate(-148.09646,-195.42742)"
       d="m 742.52881,299.51779 a 2.14689,2.14689 0 0 0 0,4.29377 h 60.14129 a 2.14689,2.14689 0 0 0 0,-4.29377 z"
       data-name="Path 143"
       id="a061bcdc-636b-4d12-a036-d7339f47b36a-161"
       inkscape:connector-curvature="0" />
    <path
       style="fill:#e6e6e6"
       data-darkreader-inline-fill=""
       transform="translate(-148.09646,-195.42742)"
       d="m 739.56444,361.87112 a 2.14688,2.14688 0 0 0 0,4.29376 h 220.88293 a 2.14688,2.14688 0 0 0 0,-4.29376 z"
       data-name="Path 142"
       id="e4e4593e-e83d-4128-8cd7-f0323b36c2f2-162"
       inkscape:connector-curvature="0" />
    <path
       style="fill:#e6e6e6"
       data-darkreader-inline-fill=""
       transform="translate(-148.09646,-195.42742)"
       d="m 739.56444,374.75362 a 2.14689,2.14689 0 0 0 0,4.29377 h 163.22029 a 2.14689,2.14689 0 0 0 0,-4.29377 z"
       data-name="Path 143"
       id="bf45783c-1d79-4b4f-82bb-39fc8a52f7aa-163"
       inkscape:connector-curvature="0" />
    <path
       style="fill:#e6e6e6"
       data-darkreader-inline-fill=""
       transform="translate(-148.09646,-195.42742)"
       d="m 739.56444,387.34466 a 2.14689,2.14689 0 0 0 0,4.29377 h 220.88293 a 2.14689,2.14689 0 0 0 0,-4.29377 z"
       data-name="Path 142"
       id="b544fc92-6fc6-4255-93fb-dee32d880d89-164"
       inkscape:connector-curvature="0" />
    <path
       style="fill:#e6e6e6"
       data-darkreader-inline-fill=""
       transform="translate(-148.09646,-195.42742)"
       d="m 739.56444,400.22717 a 2.14689,2.14689 0 0 0 0,4.29377 h 163.22029 a 2.14689,2.14689 0 0 0 0,-4.29377 z"
       data-name="Path 143"
       id="e14bb681-aaa1-4454-9da9-28d0809a146c-165"
       inkscape:connector-curvature="0" />
    <circle
       id="circle910"
       style="fill:#a0616a"
       data-darkreader-inline-fill=""
       r="18.694281"
       cy="156.4623"
       cx="475.98886" />
    <path
       id="path912"
       style="fill:#2f2e41"
       data-darkreader-inline-fill=""
       transform="translate(-148.09646,-195.42742)"
       d="m 618.16547,336.93427 c 0,0 8.724,2.33677 13.24179,3.2715 4.51779,0.93473 4.05043,-1.71365 4.05043,-1.71365 0,0 5.91986,0.77892 5.60828,0.15578 -0.31158,-0.62314 2.49256,-3.89463 -0.77893,-7.6335 -3.27149,-3.73887 -2.33679,-6.543 -2.33679,-6.543 h -2.80414 l -0.77893,-1.09051 h -4.362 c 0,0 -4.8226,-4.22888 -13.39083,-2.98259 -8.56823,1.24629 -18.701,4.54044 -19.63575,9.68138 -0.12678,0.6973 -0.29369,1.472 -0.48751,2.29025 -2.34294,9.89144 2.63523,19.14638 7.79851,27.90255 1.26893,2.15193 7.40685,6.8444 7.24985,3.62493 -0.157,-3.21947 -5.52527,-10.44986 -1.78641,-10.91722 3.73886,-0.46736 10.12607,-9.97028 8.41243,-16.04592 z"
       inkscape:connector-curvature="0" />
    <path
       id="path914"
       style="fill:#1193f3"
       data-darkreader-inline-fill=""
       transform="translate(-148.09646,-195.42742)"
       d="m 613.48045,412.325 a 65.38,65.38 0 0 1 -10.69912,-1.75788 l 0.19683,-3.728 1.63684,-29.64212 0.0148,-0.22735 h 32.93056 l 5.1679,27.29315 0.697,3.68251 c -1.36375,0.53046 -2.743,1.03058 -4.15193,1.47 -0.0155,0 -0.0155,0.0152 -0.0303,0.0152 -1.955,0.60612 -3.9403,1.13658 -5.94116,1.576 a 68.55812,68.55812 0 0 1 -8.06189,1.24267 62.04526,62.04526 0 0 1 -6.30374,0.30311 c -1.81884,9e-5 -3.65247,-0.0757 -5.45575,-0.22726 z"
       inkscape:connector-curvature="0" />
    <path
       id="path916"
       style="fill:#2f2e41"
       data-darkreader-inline-fill=""
       transform="translate(-148.09646,-195.42742)"
       d="m 592.30938,407.05128 c -1.36375,-0.591 -2.68237,-1.2275 -3.98544,-1.8943 l -0.56089,-0.28794 c -0.37886,-0.197 -0.77252,-0.4092 -1.15139,-0.62138 q -0.77363,-0.43178 -1.50064,-0.86372 c -0.46988,-0.27287 -0.95455,-0.56071 -1.42443,-0.84865 -0.0303,-0.0152 -0.0451,-0.0303 -0.0755,-0.0303 -1.6368,-1.04566 -3.24326,-2.12166 -4.789,-3.28848 q -0.38626,-0.29553 -0.77326,-0.591 l -0.27231,-4.36448 0.39366,-0.24253 26.44479,-16.82146 0.36333,-0.22735 0.0303,-0.0151 3.72794,0.0151 v 13.88151 c 2.10667,3.04605 3.5311,9.426 4.41017,17.77612 0.12136,1.19726 0.22717,2.42476 0.33373,3.69769 a 65.38,65.38 0 0 1 -10.69912,-1.75788 c -0.37886,-0.0758 -0.74293,-0.16667 -1.12179,-0.27277 a 62.70234,62.70234 0 0 1 -6.51611,-2.09132 c -0.6519,-0.24252 -1.28827,-0.50012 -1.92464,-0.75772 l -0.0607,-0.0303 c -0.27309,-0.12123 -0.57574,-0.2424 -0.84878,-0.36366 z"
       inkscape:connector-curvature="0" />
    <path
       id="path918"
       style="fill:#2f2e41"
       data-darkreader-inline-fill=""
       transform="translate(-148.09646,-195.42742)"
       d="m 586.61166,404.24766 q -0.77363,-0.43178 -1.50064,-0.86372 c -0.46988,-0.27287 -0.95455,-0.56071 -1.42443,-0.84865 -0.0303,-0.0152 -0.0451,-0.0303 -0.0755,-0.0303 -1.6368,-1.04566 -3.24326,-2.12166 -4.789,-3.28848 q -0.38626,-0.29553 -0.77326,-0.591 c -0.12062,-0.10609 -0.242,-0.197 -0.37886,-0.30311 -0.96935,-0.74255 -1.90911,-1.51544 -2.81852,-2.33375 -0.0451,-0.0303 -0.0755,-0.0758 -0.12135,-0.10609 a 10.42192,10.42192 0 0 1 3.04642,-1.62153 l 1.07591,0.31827 7.66823,2.30341 0.0451,3.10664 z"
       inkscape:connector-curvature="0" />
    <path
       id="path920"
       style="fill:#2f2e41"
       data-darkreader-inline-fill=""
       transform="translate(-148.09646,-195.42742)"
       d="m 651.1845,404.29316 c -0.45508,0.24243 -0.90941,0.485 -1.36375,0.71222 -0.10656,0.0607 -0.19683,0.10609 -0.28785,0.1516 -0.60677,0.30311 -1.19726,0.60612 -1.80329,0.89406 -0.0155,0.0152 -0.0459,0.0152 -0.0459,0.0303 -0.0303,0.0152 -0.0755,0.0303 -0.10582,0.0455 -1.36375,0.65163 -2.743,1.25776 -4.15267,1.81846 -1.36375,0.53046 -2.743,1.03058 -4.15193,1.47 -0.0155,0 -0.0155,0.0152 -0.0303,0.0152 -1.955,0.60612 -3.9403,1.13658 -5.94116,1.576 a 12.50562,12.50562 0 0 1 0.48542,-3.68252 l 0.0148,-0.21218 1.30381,-21.09495 -1.74335,-9.04724 5.00141,-0.74256 27.50515,14.80594 c 0,0 -3.03089,3.03089 -15.47262,9.48669 -1.1001,0.57086 0.51501,2.47021 0.78806,3.77347 z"
       inkscape:connector-curvature="0" />
    <path
       id="path922"
       style="fill:#3f3d56"
       data-darkreader-inline-fill=""
       transform="translate(-148.09646,-195.42742)"
       d="m 624.907,408.61214 c -1.97052,0.18185 -3.97064,0.27286 -5.97076,0.27286 -1.94018,0 -3.86482,-0.0758 -5.78947,-0.25769 0.12136,1.19726 0.22717,2.42476 0.33373,3.69769 1.80328,0.1516 3.63691,0.22735 5.45574,0.22735 a 62.04526,62.04526 0 0 0 6.30374,-0.30311 68.55812,68.55812 0 0 0 8.06189,-1.24267 12.50562,12.50562 0 0 1 0.48542,-3.68252 l 0.0148,-0.21218 a 62.99621,62.99621 0 0 1 -8.89509,1.50027 z m 57.26792,-85.04667 A 66.97189,66.97189 0 1 0 566.441,387.18384 c 0.606,0.75772 1.2276,1.51545 1.864,2.24283 0.0607,0.0606 0.091,0.10609 0.13615,0.15151 a 63.82062,63.82062 0 0 0 4.98587,5.13737 c 0.42474,0.394 0.86354,0.78806 1.30308,1.16692 0.0459,0.0302 0.0762,0.0758 0.12135,0.10609 0.90941,0.81831 1.84917,1.5912 2.81852,2.33375 0.13689,0.1061 0.25824,0.197 0.37886,0.30311 q 0.38736,0.29553 0.77326,0.591 c 1.54578,1.16682 3.15224,2.24282 4.789,3.28848 0.0303,0 0.0451,0.0152 0.0755,0.0303 0.46988,0.28794 0.95455,0.57578 1.42443,0.84865 q 0.72813,0.43189 1.50064,0.86372 c 0.37887,0.21218 0.77253,0.42436 1.15139,0.62138 l 0.56089,0.28794 c 1.30307,0.6668 2.62169,1.30326 3.98544,1.8943 0.273,0.12126 0.57569,0.24243 0.84873,0.36369 l 0.0607,0.0303 c 0.63637,0.2576 1.27274,0.5152 1.92464,0.75772 a 62.70234,62.70234 0 0 0 6.51611,2.09132 c 0.37886,0.1061 0.74293,0.197 1.12179,0.27277 a 65.38,65.38 0 0 0 10.69912,1.75788 c 1.80328,0.1516 3.63691,0.22735 5.45574,0.22735 a 62.04526,62.04526 0 0 0 6.30374,-0.30311 68.55812,68.55812 0 0 0 8.06189,-1.24267 c 2.00086,-0.43945 3.98618,-0.96991 5.94116,-1.576 0.0148,0 0.0148,-0.0152 0.0303,-0.0152 1.40889,-0.43945 2.78818,-0.93957 4.15193,-1.47 1.40963,-0.5607 2.78892,-1.16683 4.15267,-1.81846 0.0303,-0.0152 0.0755,-0.0303 0.10582,-0.0455 0,-0.0152 0.0303,-0.0152 0.0459,-0.0303 0.606,-0.28794 1.19652,-0.591 1.80329,-0.89406 0.091,-0.0455 0.18129,-0.0909 0.28785,-0.1516 0.45434,-0.22726 0.90867,-0.46979 1.36375,-0.71222 0.0303,-0.0152 0.0451,-0.0303 0.0755,-0.0455 1.19725,-0.66671 2.37971,-1.36385 3.54664,-2.1064 0.31818,-0.197 0.63636,-0.394 0.95455,-0.62138 0.46987,-0.28794 0.92421,-0.60613 1.36375,-0.9244 0.59123,-0.4092 1.18172,-0.83348 1.75815,-1.273 a 4.67929,4.67929 0 0 0 0.54535,-0.40911 c 1.40963,-1.06083 2.77338,-2.18224 4.07646,-3.36433 a 66.91395,66.91395 0 0 0 18.67,-71.98356 z m -19.80658,68.07378 a 64.7919,64.7919 0 0 1 -5.15236,4.36448 c -0.39366,0.303 -0.8036,0.60613 -1.212,0.87889 -0.3944,0.30311 -0.78806,0.59105 -1.19726,0.86382 -0.34853,0.24252 -0.697,0.48495 -1.06111,0.7123 -0.0303,0.0303 -0.0755,0.0454 -0.10582,0.0758 -0.25824,0.18184 -0.53055,0.34852 -0.78806,0.5152 -0.80359,0.50012 -1.63679,1.00024 -2.45519,1.47 -0.19683,0.1061 -0.37886,0.22727 -0.57569,0.33336 -0.10656,0.0607 -0.21237,0.12126 -0.33373,0.18184 -0.45433,0.2577 -0.90941,0.485 -1.36375,0.72748 -0.0607,0.0454 -0.13615,0.0606 -0.19683,0.10609 a 0.11229,0.11229 0 0 0 -0.0607,0.0303 c -0.31819,0.16677 -0.63637,0.31827 -0.95455,0.46978 -0.27305,0.13643 -0.53056,0.27277 -0.8036,0.394 -1.10625,0.53046 -2.24283,1.03049 -3.37941,1.50028 -1.19726,0.48495 -2.40932,0.92449 -3.63692,1.33359 -0.30338,0.1061 -0.62157,0.22736 -0.93975,0.31828 -1.44,0.45461 -2.8792,0.86381 -4.3495,1.19717 a 62.99621,62.99621 0 0 1 -8.89509,1.50027 c -1.97052,0.18185 -3.97064,0.27286 -5.97076,0.27286 -1.94018,0 -3.86482,-0.0758 -5.78947,-0.25769 a 62.3735,62.3735 0 0 1 -10.16856,-1.78821 c -0.12136,-0.0303 -0.25751,-0.0606 -0.37886,-0.0909 a 58.11093,58.11093 0 0 1 -8.01676,-2.72777 c -0.13615,-0.0606 -0.28784,-0.1061 -0.4092,-0.16668 -0.15169,-0.0607 -0.28784,-0.10609 -0.4092,-0.16677 -0.15169,-0.0606 -0.28784,-0.12117 -0.424,-0.18185 -1.13658,-0.5 -2.24282,-1.04566 -3.34907,-1.60636 l -0.51575,-0.27277 c -0.98489,-0.5152 -1.955,-1.04566 -2.90953,-1.63671 -0.333,-0.18184 -0.68151,-0.39393 -1.01523,-0.60612 -0.37886,-0.22735 -0.75772,-0.46978 -1.12178,-0.7123 q -0.13542,-0.0909 -0.27231,-0.18185 c -0.84874,-0.57588 -1.71227,-1.15175 -2.53067,-1.773 -0.57569,-0.42437 -1.13659,-0.83348 -1.69748,-1.273 -0.36406,-0.27276 -0.72738,-0.5607 -1.0759,-0.86372 -0.22717,-0.16677 -0.45434,-0.36378 -0.68225,-0.5608 -0.30264,-0.2576 -0.606,-0.5152 -0.90867,-0.788 -0.46988,-0.37886 -0.90942,-0.80323 -1.33416,-1.19726 a 60.22928,60.22928 0 0 1 -4.83417,-5.00095 c -0.515,-0.57587 -1.00043,-1.15175 -1.46957,-1.75787 a 3.64682,3.64682 0 0 1 -0.30338,-0.37886 63.2983,63.2983 0 1 1 93.04807,6.74374 z"
       inkscape:connector-curvature="0" />
    <polygon
       id="polygon924"
       style="fill:#a0616a"
       data-darkreader-inline-fill=""
       points="163.436,496.698 175.696,496.697 181.528,449.409 163.434,449.41 " />
    <path
       id="path926"
       style="fill:#2f2e41"
       data-darkreader-inline-fill=""
       transform="translate(-148.09646,-195.42742)"
       d="m 308.40551,688.12252 24.144,-10e-4 h 10e-4 a 15.38731,15.38731 0 0 1 15.38649,15.38625 v 0.5 l -39.53076,10e-4 z"
       inkscape:connector-curvature="0" />
    <polygon
       id="polygon928"
       style="fill:#a0616a"
       data-darkreader-inline-fill=""
       points="209.436,496.698 221.696,496.697 227.528,449.409 209.434,449.41 " />
    <path
       id="path930"
       style="fill:#2f2e41"
       data-darkreader-inline-fill=""
       transform="translate(-148.09646,-195.42742)"
       d="m 354.40551,688.12252 24.144,-10e-4 h 10e-4 a 15.38731,15.38731 0 0 1 15.38649,15.38625 v 0.5 l -39.53076,10e-4 z"
       inkscape:connector-curvature="0" />
    <path
       id="path932"
       style="fill:#9e616a"
       data-darkreader-inline-fill=""
       transform="translate(-148.09646,-195.42742)"
       d="m 274.333,505.26744 a 10.05579,10.05579 0 0 0 -1.88328,-15.30389 l 8.51818,-34.70475 -17.49238,6.233 -5.40724,32.00063 a 10.11028,10.11028 0 0 0 16.26472,11.775 z"
       inkscape:connector-curvature="0" />
    <path
       id="path934"
       style="fill:#9e616a"
       data-darkreader-inline-fill=""
       transform="translate(-148.09646,-195.42742)"
       d="m 404.47409,502.26744 a 10.05576,10.05576 0 0 1 1.88329,-15.30389 l -8.51818,-34.70475 17.49238,6.233 5.40723,32.00063 a 10.11027,10.11027 0 0 1 -16.26472,11.775 z"
       inkscape:connector-curvature="0" />
    <polygon
       id="polygon936"
       style="fill:#2f2e41"
       data-darkreader-inline-fill=""
       points="236.736,279.728 151.319,271.078 142.367,285.513 159.36,484.578 184.224,482.311 194.175,328.461 203.033,389.379 204.807,486.145 227.307,484.645 239.801,380.545 " />
    <circle
       id="circle938"
       style="fill:#a0616a"
       data-darkreader-inline-fill=""
       r="25.78574"
       cy="78.582451"
       cx="189.11211" />
    <path
       id="path940"
       style="fill:#2f2e41"
       data-darkreader-inline-fill=""
       transform="translate(-148.09646,-195.42742)"
       d="m 329.04308,253.38125 c 0,0 12.03336,3.22321 18.26491,4.51252 6.23155,1.28931 5.58691,-2.36371 5.58691,-2.36371 0,0 8.1655,1.0744 7.73572,0.21487 -0.42978,-0.85953 3.43809,-5.372 -1.0744,-10.52917 -4.51249,-5.15717 -3.22322,-9.025 -3.22322,-9.025 h -3.86786 l -1.07442,-1.50418 H 345.374 c 0,0 -6.652,-5.833 -18.4705,-4.114 -11.8185,1.719 -25.79505,6.26281 -27.08434,13.3539 -0.17487,0.96182 -0.4051,2.03038 -0.67243,3.159 -3.23171,13.64365 3.63487,26.40934 10.75677,38.48707 1.75029,2.96823 10.21656,9.44074 10,5 -0.21656,-4.44074 -7.62122,-14.41389 -2.46407,-15.05854 5.15715,-0.64465 13.96734,-13.75238 11.60365,-22.13276 z"
       inkscape:connector-curvature="0" />
    <path
       id="path942"
       style="fill:#1193f3"
       data-darkreader-inline-fill=""
       transform="translate(-148.09646,-195.42742)"
       d="m 310.376,308.60391 h 45.41173 l 32.10968,169.575 c 0,0 -27.99385,2.3937 -43.99385,8.3937 -16,6 -42.59842,-13.70585 -42.59842,-13.70585 z"
       inkscape:connector-curvature="0" />
    <path
       id="path944"
       style="fill:#2f2e41"
       data-darkreader-inline-fill=""
       transform="translate(-148.09646,-195.42742)"
       d="m 316.04528,327.75369 v -19.14978 l -5.14174,-0.0313 -37.56693,23.885 8.15165,130.86273 c 0,0 9.64794,43.65782 24.28161,43.20506 14.63367,-0.45276 25.91713,-156.09058 10.27541,-178.77168 z"
       inkscape:connector-curvature="0" />
    <path
       id="path946"
       style="fill:#2f2e41"
       data-darkreader-inline-fill=""
       transform="translate(-148.09646,-195.42742)"
       d="m 285.40354,336.07258 -12.06693,-3.615 c 0,0 -8.93307,2.615 -8.93307,11.615 0,9 -7.69685,136.86794 -7.69685,136.86794 l 24.45076,2.16092 5.24609,-65.02886 z"
       inkscape:connector-curvature="0" />
    <path
       id="path948"
       style="fill:#2f2e41"
       data-darkreader-inline-fill=""
       transform="translate(-148.09646,-195.42742)"
       d="m 352.40354,321.07258 -2.40535,-12.46867 6.90535,-1.03133 25,10 c 0,0 22.5,164.5 12.5,169.5 -10,5 -16.752,1.12615 -16.752,1.12615 0,0 -32.89122,-121.32613 -27.06961,-137.72614 z"
       inkscape:connector-curvature="0" />
    <path
       id="path950"
       style="fill:#2f2e41"
       data-darkreader-inline-fill=""
       transform="translate(-148.09646,-195.42742)"
       d="m 364.40354,320.07258 4.26656,-1.85711 c 0,0 12.52311,-6.20565 19.62828,6.32573 7.10517,12.53138 32.10516,152.53138 32.10516,152.53138 l -20.57029,3.86794 -15.37853,-50.38368 z"
       inkscape:connector-curvature="0" />
    <path
       id="path952"
       style="fill:#cacaca"
       data-darkreader-inline-fill=""
       transform="translate(-148.09646,-195.42742)"
       d="m 530.09646,704.57258 h -381 a 1,1 0 1 1 0,-2 h 381 a 1,1 0 0 1 0,2 z"
       inkscape:connector-curvature="0" />
  </g>
  <g
     id="g1195"
     transform="matrix(0.18790923,0,0,0.18790923,483.49425,682.15221)">
    <path
       id="path1016"
       transform="translate(-93.02536,-198.5)"
       d="m 600,198.5 c -278.673,0 -504.824,224.83411 -506.97467,503 H 1106.9746 C 1104.824,423.33411 878.67307,198.5 600,198.5 Z"
       inkscape:connector-curvature="0"
       style="fill:#2f2e41" />
    <circle
       id="circle1018"
       r="5"
       cy="52.543949"
       cx="480.78757"
       style="fill:#f2f2f2" />
    <circle
       id="circle1020"
       r="2"
       cy="217.54395"
       cx="323.78757"
       style="fill:#f2f2f2" />
    <circle
       id="circle1022"
       r="2"
       cy="311.54395"
       cx="618.78754"
       style="fill:#f2f2f2" />
    <circle
       id="circle1024"
       r="2"
       cy="286.54395"
       cx="97.78756"
       style="fill:#f2f2f2" />
    <circle
       id="circle1026"
       r="2"
       cy="215.54395"
       cx="877.78754"
       style="fill:#f2f2f2" />
    <circle
       id="circle1028"
       r="2"
       cy="236.54395"
       cx="235.78757"
       style="fill:#f2f2f2" />
    <circle
       id="circle1030"
       r="2"
       cy="196.54395"
       cx="563.78754"
       style="fill:#f2f2f2" />
    <circle
       id="circle1032"
       r="2"
       cy="52.543949"
       cx="629.78754"
       style="fill:#f2f2f2" />
    <rect
       id="rect1034"
       height="1"
       width="2"
       y="288.54395"
       x="211.78757"
       style="fill:#f2f2f2" />
    <rect
       id="rect1036"
       height="1"
       width="2"
       y="135.54395"
       x="270.78757"
       style="fill:#f2f2f2" />
    <rect
       id="rect1038"
       height="1"
       width="2"
       y="249.54395"
       x="414.78757"
       style="fill:#f2f2f2" />
    <rect
       id="rect1040"
       height="1"
       width="2"
       y="293.54395"
       x="796.78754"
       style="fill:#f2f2f2" />
    <rect
       id="rect1042"
       height="1"
       width="2"
       y="140.54395"
       x="677.78754"
       style="fill:#f2f2f2" />
    <rect
       id="rect1044"
       height="139.0033"
       width="3.5190699"
       y="363.68008"
       x="225.08928"
       style="fill:#3f3d56" />
    <path
       id="path1046"
       transform="translate(-93.02536,-198.5)"
       d="m 354.11075,537.89444 c 0.224,48.606 -33.97287,88.16737 -33.97287,88.16737 0,0 -34.56009,-39.24449 -34.78411,-87.85048 -0.22402,-48.60599 33.97287,-88.16733 33.97287,-88.16733 0,0 34.56009,39.24445 34.78411,87.85044 z"
       inkscape:connector-curvature="0"
       style="fill:#3f3d56" />
    <rect
       id="rect1048"
       height="180.21124"
       width="4.5623102"
       y="322.47214"
       x="180.60974"
       style="fill:#3f3d56" />
    <path
       id="path1050"
       transform="translate(-93.02536,-198.5)"
       d="m 320.30235,501.938 c 0.29043,63.01538 -44.04422,114.30486 -44.04422,114.30486 0,0 -44.80554,-50.87864 -45.096,-113.894 -0.29046,-63.01536 44.04426,-114.30486 44.04426,-114.30486 0,0 44.80553,50.87859 45.09596,113.894 z"
       inkscape:connector-curvature="0"
       style="fill:#3f3d56" />
    <rect
       id="rect1052"
       height="139.0033"
       width="3.5190699"
       y="363.68008"
       x="712.08929"
       style="fill:#1193f3" />
    <path
       id="path1054"
       transform="translate(-93.02536,-198.5)"
       d="m 841.11075,579.89444 c 0.224,48.606 -33.97287,88.16737 -33.97287,88.16737 0,0 -34.56009,-39.24449 -34.78411,-87.85048 -0.22402,-48.60599 33.97287,-88.16733 33.97287,-88.16733 0,0 34.56009,39.24445 34.78411,87.85044 z"
       inkscape:connector-curvature="0"
       style="fill:#3f3d56" />
    <rect
       id="rect1056"
       height="139.0033"
       width="3.5190699"
       y="363.68008"
       x="141.08928"
       style="fill:#3f3d56" />
    <path
       id="path1058"
       transform="translate(-93.02536,-198.5)"
       d="m 270.11075,537.89444 c 0.224,48.606 -33.97287,88.16737 -33.97287,88.16737 0,0 -34.56009,-39.24449 -34.78411,-87.85048 -0.22402,-48.60599 33.97287,-88.16733 33.97287,-88.16733 0,0 34.56009,39.24445 34.78411,87.85044 z"
       inkscape:connector-curvature="0"
       style="fill:#3f3d56" />
    <rect
       id="rect1060"
       height="139.0033"
       width="3.5190699"
       y="363.68008"
       x="451.08929"
       style="fill:#3f3d56" />
    <path
       id="path1062"
       transform="translate(-93.02536,-198.5)"
       d="m 580.11075,537.89444 c 0.224,48.606 -33.97287,88.16737 -33.97287,88.16737 0,0 -34.56009,-39.24449 -34.78411,-87.85048 -0.22402,-48.60599 33.97287,-88.16733 33.97287,-88.16733 0,0 34.56009,39.24445 34.78411,87.85044 z"
       inkscape:connector-curvature="0"
       style="fill:#3f3d56" />
    <rect
       id="rect1064"
       height="180.21124"
       width="4.5623102"
       y="322.47214"
       x="406.60974"
       style="fill:#3f3d56" />
    <path
       id="path1066"
       transform="translate(-93.02536,-198.5)"
       d="m 546.30235,501.938 c 0.29043,63.01538 -44.04422,114.30486 -44.04422,114.30486 0,0 -44.80554,-50.87864 -45.096,-113.894 -0.29046,-63.01536 44.04426,-114.30486 44.04426,-114.30486 0,0 44.80553,50.87859 45.09596,113.894 z"
       inkscape:connector-curvature="0"
       style="fill:#3f3d56" />
    <rect
       id="rect1068"
       height="139.0033"
       width="3.5190699"
       y="363.68008"
       x="367.08929"
       style="fill:#3f3d56" />
    <path
       id="path1070"
       transform="translate(-93.02536,-198.5)"
       d="m 496.11075,537.89444 c 0.224,48.606 -33.97287,88.16737 -33.97287,88.16737 0,0 -34.56009,-39.24449 -34.78411,-87.85048 -0.22402,-48.60599 33.97287,-88.16733 33.97287,-88.16733 0,0 34.56009,39.24445 34.78411,87.85044 z"
       inkscape:connector-curvature="0"
       style="fill:#3f3d56" />
    <path
       id="path1072"
       transform="translate(-93.02536,-198.5)"
       d="m 831.38738,626.91334 -58.80359,-54.06855 c -0.15881,2.42975 -0.24146,4.88556 -0.2301,7.36652 0.22412,48.60608 34.78418,87.85046 34.78418,87.85046 a 162.81545,162.81545 0 0 0 24.24951,-41.14843 z"
       inkscape:connector-curvature="0"
       style="fill:#1193f3" />
    <path
       id="path1074"
       transform="translate(-93.02536,-198.5)"
       d="m 393.6691,688.7839 c 2.01475,7.44773 8.91572,12.0603 8.91572,12.0603 0,0 3.63442,-7.46259 1.61967,-14.91032 -2.01475,-7.44773 -8.91572,-12.06029 -8.91572,-12.06029 0,0 -3.63442,7.46258 -1.61967,14.91031 z"
       inkscape:connector-curvature="0"
       style="fill:#3f3d56" />
    <path
       id="path1076"
       transform="translate(-93.02536,-198.5)"
       d="m 396.62963,687.18331 c 5.5285,5.38177 6.20377,13.65481 6.20377,13.65481 0,0 -8.28821,-0.45254 -13.81671,-5.83431 -5.5285,-5.38177 -6.20377,-13.65482 -6.20377,-13.65482 0,0 8.28821,0.45254 13.81671,5.83432 z"
       inkscape:connector-curvature="0"
       style="fill:#3f3d56" />
    <path
       id="path1078"
       transform="translate(-93.02536,-198.5)"
       d="m 677.6691,688.7839 c 2.01475,7.44773 8.91572,12.0603 8.91572,12.0603 0,0 3.63442,-7.46259 1.61967,-14.91032 -2.01475,-7.44773 -8.91572,-12.06029 -8.91572,-12.06029 0,0 -3.63442,7.46258 -1.61967,14.91031 z"
       inkscape:connector-curvature="0"
       style="fill:#1193f3" />
    <path
       id="path1080"
       transform="translate(-93.02536,-198.5)"
       d="m 680.62963,687.18331 c 5.5285,5.38177 6.20377,13.65481 6.20377,13.65481 0,0 -8.28821,-0.45254 -13.81671,-5.83431 -5.5285,-5.38177 -6.20377,-13.65482 -6.20377,-13.65482 0,0 8.28821,0.45254 13.81671,5.83432 z"
       inkscape:connector-curvature="0"
       style="fill:#1193f3" />
    <path
       id="path1082"
       transform="translate(-93.02536,-198.5)"
       d="m 169.6691,688.7839 c 2.01475,7.44773 8.91572,12.0603 8.91572,12.0603 0,0 3.63442,-7.46259 1.61967,-14.91032 -2.01475,-7.44773 -8.91572,-12.06029 -8.91572,-12.06029 0,0 -3.63442,7.46258 -1.61967,14.91031 z"
       inkscape:connector-curvature="0"
       style="fill:#3f3d56" />
    <path
       id="path1084"
       transform="translate(-93.02536,-198.5)"
       d="m 172.62963,687.18331 c 5.5285,5.38177 6.20377,13.65481 6.20377,13.65481 0,0 -8.28821,-0.45254 -13.81671,-5.83431 -5.5285,-5.38177 -6.20377,-13.65482 -6.20377,-13.65482 0,0 8.28821,0.45254 13.81671,5.83432 z"
       inkscape:connector-curvature="0"
       style="fill:#3f3d56" />
    <path
       id="path1086"
       transform="translate(-93.02536,-198.5)"
       d="m 480.35814,419.20747 96.51026,145.66168 a 113.62605,113.62605 0 0 0 3.24237,-26.97473 c -0.10926,-23.702 -8.3833,-45.17511 -16.83319,-60.96 l -4.46466,1.1095 4.19915,-1.60193 A 155.07209,155.07209 0 0 0 545.32665,450.044 c 0,0 -2.4624,2.85 -6.05945,7.95465 C 526.58763,416.87042 501.20641,388.044 501.20641,388.044 a 197.509,197.509 0 0 0 -20.84827,31.16347 z"
       inkscape:connector-curvature="0"
       style="fill:#1193f3" />
    <path
       id="path1088"
       transform="translate(-93.02536,-198.5)"
       d="m 1035.6428,695.28885 a 2.87755,2.87755 0 1 0 0,-5.7551 h -23.6598 a 6.4344,6.4344 0 0 1 -2.8776,8.63265 2.87755,2.87755 0 0 0 2.8776,2.87755 h 23.6599 a 2.87755,2.87755 0 1 0 0,-5.7551 z"
       inkscape:connector-curvature="0"
       style="opacity:0.1;fill:#f2f2f2" />
    <path
       id="path1090"
       transform="translate(-93.02536,-198.5)"
       d="m 979.40863,689.35125 c 0.40429,15.6927 -9.088,11.6927 -20.59571,11.6927 -11.50771,0 -21,2 -21.07755,-11.6927 -0.0382,-6.74272 9.39741,-8.20933 20.90516,-8.20933 11.50775,0 20.59447,1.46874 20.7681,8.20933 z"
       inkscape:connector-curvature="0"
       style="fill:#3f3d56" />
    <path
       id="path1092"
       transform="translate(-93.02536,-198.5)"
       d="m 1006.3305,695.55305 a 1.76355,1.76355 0 0 0 -0.5964,-0.192 29.82582,29.82582 0 0 1 -3.0994,-0.6626 6.5294,6.5294 0 0 1 -2.74329,-1.52636 6.6057,6.6057 0 0 0 -0.96619,-0.92542 1.1618,1.1618 0 0 0 -1.25977,-0.0905 0.83037,0.83037 0 0 0 -0.11157,0.106 q -0.21423,-0.14154 -0.42871,-0.283 -1.14221,-0.75183 -2.29541,-1.48675 l -0.0312,-0.0199 a 1.05655,1.05655 0 0 0 0.002,-0.36548 1.76634,1.76634 0 0 0 -0.76563,-0.95007 c 0.99219,-0.01 1.98951,-0.1001 2.97559,-0.20435 a 3.56935,3.56935 0 0 0 2.52612,-0.98742 0.68615,0.68615 0 0 0 0.176,-0.40808 c 0.001,-0.31067 -0.31934,-0.51386 -0.60681,-0.6316 a 6.10058,6.10058 0 0 0 -1.18665,-0.35009 6.49543,6.49543 0 0 1 -0.84155,-0.17566 4.24172,4.24172 0 0 1 -0.7085,-0.33478 q -0.73316,-0.40356 -1.46631,-0.80707 a 2.23769,2.23769 0 0 1 -0.56714,-0.39355 c -0.249,-0.26349 -0.35913,-0.63587 -0.61291,-0.89478 -0.23377,-0.23859 -1.1792,-0.55267 -1.31445,-0.0638 -0.0535,0.19305 0.15051,0.40674 0.17517,0.62262 a 9.90818,9.90818 0 0 0 -1.01477,-0.55756 c 0.0189,-0.0432 0.0441,-0.0823 0.0604,-0.127 a 13.07328,13.07328 0 0 1 -3.75952,-4.86737 c 0.14539,0.003 0.29065,0.0125 0.436,0.0113 a 1.11456,1.11456 0 0 0 0.70434,-0.17206 0.76909,0.76909 0 0 0 0.24963,-0.62463 2.11712,2.11712 0 0 0 -0.16857,-0.6731 5.15129,5.15129 0 0 0 -0.97339,-1.74627 5.841,5.841 0 0 0 -1.426,-1.013 l -0.0845,-0.0475 c -0.0357,-0.108 -0.0681,-0.217 -0.11121,-0.32257 a 17.17213,17.17213 0 0 0 -1.06946,-1.90283 12.45233,12.45233 0 0 1 -1.22277,-3.25666 4.19574,4.19574 0 0 0 -0.77185,-1.91565 c -0.76319,-0.84106 -2.072,-0.81982 -3.20044,-0.69262 -0.6438,0.0726 -1.28467,0.16955 -1.92481,0.269 -0.006,-0.016 -0.006,-0.0337 -0.0129,-0.0497 a 1.3106,1.3106 0 0 1 -0.14734,-0.48548 2.01263,2.01263 0 0 1 0.0907,-0.40838 1.00286,1.00286 0 0 0 -0.28,-0.92139 c -0.0266,-0.0255 -0.053,-0.0543 -0.0795,-0.0823 q 0.10566,-0.24939 0.194,-0.50317 a 0.6043,0.6043 0 0 0 0.14075,-0.45569 4.82416,4.82416 0 0 0 0.18274,-1.25915 13.78848,13.78848 0 0 1 -0.10107,-2.841 1.59086,1.59086 0 0 0 -0.25,-0.65673 c -0.0234,-0.0316 -0.0625,-0.046 -0.0891,-0.0741 a 4.02209,4.02209 0 0 1 0.67089,-0.69659 10.09259,10.09259 0 0 1 1.57447,-0.99775 c 0.13281,-0.0731 0.31811,-0.12512 0.44506,-0.20892 a 4.45646,4.45646 0 0 0 0.58863,0.0593 4.48869,4.48869 0 0 0 4.20776,-6.12317 1.57362,1.57362 0 0 0 0.98,-0.72315 2.94537,2.94537 0 0 0 0.38452,-1.2456 1.30425,1.30425 0 0 0 -0.18823,-0.98468 2.20151,2.20151 0 0 0 -0.57263,-0.40058 2.19494,2.19494 0 0 1 -0.71338,-0.72229 c -0.12646,-0.20874 -0.217,-0.43689 -0.33069,-0.65283 a 2.4202,2.4202 0 0 0 -2.09118,-1.38586 9.03817,9.03817 0 0 0 -1.244,0.24792 c -1.39991,0.24549 -2.92176,-0.49524 -4.22046,0.0825 a 3.9278,3.9278 0 0 0 -0.88306,0.58887 q -0.54858,0.45236 -1.05444,0.95306 a 2.1824,2.1824 0 0 0 -0.64258,0.9353 c -0.17639,0.66254 0.24316,1.40284 -0.0238,2.03437 a 3.07119,3.07119 0 0 1 -0.32557,0.51135 c -0.29467,0.43213 0.0254,2.11914 -0.007,2.64117 a 0.97881,0.97881 0 0 0 0.18067,0.72358 0.61087,0.61087 0 0 0 0.13147,0.1004 58.57379,58.57379 0 0 0 -6.3794,2.71124 13.67072,13.67072 0 0 0 -5.91955,5.52924 c -0.35156,0.68554 -0.6189,1.41064 -0.937,2.11242 -0.42395,0.93586 -0.937,1.82819 -1.44934,2.71888 -0.62488,1.08636 -1.25086,2.17462 -1.97352,3.19854 a 18.33463,18.33463 0 0 0 -1.14257,1.69361 1.625,1.625 0 0 0 -0.008,0.25689 0.45932,0.45932 0 0 1 -0.0232,0.2406 0.37171,0.37171 0 0 1 -0.27331,0.15638 l -0.017,0.0441 a 15.66155,15.66155 0 0 0 -0.40552,1.60138 c -0.21337,0.859 -0.55346,1.68811 -0.68432,2.56354 a 0.68174,0.68174 0 0 0 0.66528,1.06226 c 0.74915,0.33319 1.47095,0.72332 2.19043,1.11682 -0.0106,0.0528 -0.0271,0.10364 -0.0338,0.15759 a 2.9519,2.9519 0 0 0 1.56445,2.73352 8.05082,8.05082 0 0 0 3.19275,0.86768 c 0.4314,0.0518 0.86548,0.0759 1.29761,0.11993 a 8.81934,8.81934 0 0 0 1.99853,0.80982 1.85314,1.85314 0 0 0 0.46778,0.0733 1.42218,1.42218 0 0 0 1.06933,-0.60242 73.85972,73.85972 0 0 0 11.15405,-0.2276 4.08064,4.08064 0 0 1 3.01038,0.46668 c 0.80408,0.65344 0.9657,1.81176 1.56311,2.65844 a 9.80322,9.80322 0 0 0 1.45435,1.41871 21.66952,21.66952 0 0 1 2.79272,3.67083 8.24067,8.24067 0 0 0 3.36475,3.1059 2.381,2.381 0 0 1 1.04443,-0.90851 c 0.11133,-0.0662 0.21753,-0.14349 0.3269,-0.21472 a 4.109,4.109 0 0 0 0.51062,0.66565 c 0.14319,0.15491 0.28577,0.31854 0.41968,0.48736 -0.004,4.3e-4 -0.008,-0.002 -0.0122,-0.001 -0.19471,0.0306 -0.25989,0.27386 -0.28223,0.46967 q -0.12835,1.12462 -0.257,2.2492 a 0.83679,0.83679 0 0 0 0.03,0.44452 0.78577,0.78577 0 0 0 0.40454,0.33569 6.09134,6.09134 0 0 0 2.21875,0.58533 c 0.38745,0.0263 0.77686,0.0155 1.16358,0.0496 a 14.05834,14.05834 0 0 1 1.87963,0.37525 17.67309,17.67309 0 0 0 5.12721,0.40149 3.26142,3.26142 0 0 0 1.0399,-0.197 3.092,3.092 0 0 0 1.0265,-0.79467 2.90688,2.90688 0 0 0 0.7722,-1.23688 1.20147,1.20147 0 0 0 -0.4428,-1.30498 z"
       inkscape:connector-curvature="0"
       style="fill:#3f3d56" />
    <path
       id="path1094"
       transform="translate(-93.02536,-198.5)"
       d="m 978.66619,645.31873 c 0.166,-0.0291 0.32959,-0.0743 0.4934,-0.11645 a 3.60492,3.60492 0 0 0 -1.56518,0.15124 4.36632,4.36632 0 0 0 1.07178,-0.0348 z"
       inkscape:connector-curvature="0"
       style="fill:#ff6584" />
    <path
       id="path1096"
       transform="translate(-93.02536,-198.5)"
       d="m 982.00139,646.45667 c 0.11365,0.21594 0.20423,0.44409 0.33069,0.65283 a 2.19494,2.19494 0 0 0 0.71338,0.72229 2.20151,2.20151 0 0 1 0.57263,0.40058 1.30425,1.30425 0 0 1 0.18823,0.98468 2.94537,2.94537 0 0 1 -0.38452,1.2456 1.57362,1.57362 0 0 1 -0.98,0.72315 4.40889,4.40889 0 0 1 -4.79639,6.06384 c -0.127,0.0838 -0.31225,0.1358 -0.44506,0.20892 a 10.09259,10.09259 0 0 0 -1.57447,0.99775 4.02209,4.02209 0 0 0 -0.67089,0.69659 c 0.0266,0.0281 0.0657,0.0425 0.0891,0.0741 a 1.59086,1.59086 0 0 1 0.25,0.65673 13.78848,13.78848 0 0 0 0.10107,2.841 4.82416,4.82416 0 0 1 -0.18274,1.25915 0.6043,0.6043 0 0 1 -0.14075,0.45569 q -0.0888,0.25378 -0.194,0.50317 c 0.0265,0.028 0.0529,0.0568 0.0795,0.0823 a 1.00286,1.00286 0 0 1 0.28,0.92139 2.01263,2.01263 0 0 0 -0.0907,0.40838 1.3106,1.3106 0 0 0 0.14734,0.48548 c 0.006,0.0159 0.007,0.0336 0.0129,0.0497 0.64014,-0.0994 1.281,-0.19641 1.92481,-0.269 a 9.45448,9.45448 0 0 1 0.95532,-0.0627 0.66,0.66 0 0 1 -0.0404,-0.20349 2.01263,2.01263 0 0 1 0.0907,-0.40838 1.00286,1.00286 0 0 0 -0.28,-0.92139 c -0.0266,-0.0255 -0.053,-0.0543 -0.0795,-0.0823 q 0.10566,-0.24939 0.194,-0.50317 a 0.6043,0.6043 0 0 0 0.14075,-0.45569 4.82416,4.82416 0 0 0 0.18274,-1.25915 13.78848,13.78848 0 0 1 -0.10107,-2.841 1.59086,1.59086 0 0 0 -0.25,-0.65673 c -0.0234,-0.0316 -0.0625,-0.046 -0.0891,-0.0741 a 4.02209,4.02209 0 0 1 0.67089,-0.69659 10.09259,10.09259 0 0 1 1.57447,-0.99775 c 0.13281,-0.0731 0.31811,-0.12512 0.44506,-0.20892 a 4.45646,4.45646 0 0 0 0.58863,0.0593 4.48869,4.48869 0 0 0 4.20776,-6.12317 1.57362,1.57362 0 0 0 0.98,-0.72315 2.94537,2.94537 0 0 0 0.38452,-1.2456 1.30425,1.30425 0 0 0 -0.18823,-0.98468 2.20151,2.20151 0 0 0 -0.57263,-0.40058 2.19494,2.19494 0 0 1 -0.71338,-0.72229 c -0.12646,-0.20874 -0.217,-0.43689 -0.33069,-0.65283 a 2.4202,2.4202 0 0 0 -2.09118,-1.38586 9.03817,9.03817 0 0 0 -1.244,0.24792 3.78441,3.78441 0 0 1 -0.69312,0.0458 2.792,2.792 0 0 1 1.0283,1.09218 z"
       inkscape:connector-curvature="0"
       style="fill:#ff6584" />
    <path
       id="path1098"
       transform="translate(-93.02536,-198.5)"
       d="m 1006.3305,695.55305 a 1.76355,1.76355 0 0 0 -0.5964,-0.192 29.82582,29.82582 0 0 1 -3.0994,-0.6626 6.5294,6.5294 0 0 1 -2.74329,-1.52636 6.6057,6.6057 0 0 0 -0.96619,-0.92542 1.1618,1.1618 0 0 0 -1.25977,-0.0905 0.83037,0.83037 0 0 0 -0.11157,0.106 q -0.21423,-0.14154 -0.42871,-0.283 -1.14221,-0.75183 -2.29541,-1.48675 l -0.0312,-0.0199 a 1.05655,1.05655 0 0 0 0.002,-0.36548 1.76634,1.76634 0 0 0 -0.76563,-0.95007 c 0.99219,-0.01 1.98951,-0.1001 2.97559,-0.20435 a 3.56935,3.56935 0 0 0 2.52612,-0.98742 0.68615,0.68615 0 0 0 0.176,-0.40808 c 0.001,-0.31067 -0.31934,-0.51386 -0.60681,-0.6316 a 6.10058,6.10058 0 0 0 -1.18665,-0.35009 6.49543,6.49543 0 0 1 -0.84155,-0.17566 4.24172,4.24172 0 0 1 -0.7085,-0.33478 q -0.73316,-0.40356 -1.46631,-0.80707 a 2.23769,2.23769 0 0 1 -0.56714,-0.39355 c -0.249,-0.26349 -0.35913,-0.63587 -0.61291,-0.89478 -0.23377,-0.23859 -1.1792,-0.55267 -1.31445,-0.0638 -0.0535,0.19305 0.15051,0.40674 0.17517,0.62262 a 9.90818,9.90818 0 0 0 -1.01477,-0.55756 c 0.0189,-0.0432 0.0441,-0.0823 0.0604,-0.127 a 13.07328,13.07328 0 0 1 -3.75952,-4.86737 c 0.14539,0.003 0.29065,0.0125 0.436,0.0113 a 1.11456,1.11456 0 0 0 0.70434,-0.17206 0.76909,0.76909 0 0 0 0.24963,-0.62463 2.11712,2.11712 0 0 0 -0.16857,-0.6731 5.15129,5.15129 0 0 0 -0.97339,-1.74627 5.841,5.841 0 0 0 -1.426,-1.013 l -0.0845,-0.0475 c -0.0357,-0.108 -0.0681,-0.217 -0.11121,-0.32257 a 17.17213,17.17213 0 0 0 -1.06946,-1.90283 12.45233,12.45233 0 0 1 -1.22277,-3.25666 4.19574,4.19574 0 0 0 -0.77185,-1.91565 c -0.76319,-0.84106 -2.072,-0.81982 -3.20044,-0.69262 -0.2522,0.0284 -0.50257,0.0707 -0.754,0.10534 a 2.1324,2.1324 0 0 1 0.95447,0.58728 4.19574,4.19574 0 0 1 0.77185,1.91565 12.45233,12.45233 0 0 0 1.22277,3.25666 17.17213,17.17213 0 0 1 1.06946,1.90283 c 0.0431,0.10559 0.0756,0.2146 0.11121,0.32257 l 0.0845,0.0475 a 5.841,5.841 0 0 1 1.426,1.013 5.15129,5.15129 0 0 1 0.97339,1.74627 2.11712,2.11712 0 0 1 0.16857,0.6731 0.76909,0.76909 0 0 1 -0.24963,0.62463 1.11456,1.11456 0 0 1 -0.70434,0.17206 c -0.14539,10e-4 -0.29065,-0.008 -0.436,-0.0113 a 13.07328,13.07328 0 0 0 3.75952,4.86737 c -0.0164,0.0447 -0.0415,0.0839 -0.0604,0.127 a 9.90818,9.90818 0 0 1 1.01477,0.55756 c -0.0247,-0.21588 -0.22864,-0.42957 -0.17517,-0.62262 0.13525,-0.48883 1.08068,-0.17475 1.31445,0.0638 0.25378,0.25891 0.36389,0.63129 0.61291,0.89478 a 2.23769,2.23769 0 0 0 0.56714,0.39355 q 0.73315,0.40347 1.46631,0.80707 a 4.24172,4.24172 0 0 0 0.7085,0.33478 6.49543,6.49543 0 0 0 0.84155,0.17566 6.10058,6.10058 0 0 1 1.18665,0.35009 c 0.28747,0.11774 0.608,0.32093 0.60681,0.6316 a 0.68615,0.68615 0 0 1 -0.176,0.40808 3.56935,3.56935 0 0 1 -2.52612,0.98742 c -0.98608,0.10425 -1.9834,0.19483 -2.97559,0.20435 a 1.76634,1.76634 0 0 1 0.76563,0.95007 1.05655,1.05655 0 0 1 -0.002,0.36548 l 0.0312,0.0199 q 1.1532,0.73489 2.29541,1.48675 0.2146,0.14118 0.42871,0.283 a 0.83037,0.83037 0 0 1 0.11157,-0.106 1.1618,1.1618 0 0 1 1.25977,0.0905 6.6057,6.6057 0 0 1 0.96619,0.92542 6.5294,6.5294 0 0 0 2.74328,1.52636 29.82582,29.82582 0 0 0 3.09938,0.6626 1.76355,1.76355 0 0 1 0.5964,0.192 1.20147,1.20147 0 0 1 0.4429,1.30505 2.90688,2.90688 0 0 1 -0.7722,1.23688 3.092,3.092 0 0 1 -1.0265,0.79467 2.675,2.675 0 0 1 -0.7611,0.1673 17.64941,17.64941 0 0 0 2.7212,0.0297 3.26142,3.26142 0 0 0 1.0399,-0.197 3.092,3.092 0 0 0 1.0265,-0.79467 2.90688,2.90688 0 0 0 0.7722,-1.23688 1.20147,1.20147 0 0 0 -0.4429,-1.30502 z"
       inkscape:connector-curvature="0"
       style="fill:#ff6584" />
    <path
       id="path1100"
       transform="translate(-93.02536,-198.5)"
       d="m 989.69426,693.04914 c 0.0496,0.0453 0.098,0.0922 0.14868,0.13605 -0.0369,-0.0538 -0.0778,-0.10553 -0.11084,-0.16089 z"
       inkscape:connector-curvature="0"
       style="fill:#ff6584" />
    <path
       id="path1102"
       transform="translate(-93.02536,-198.5)"
       d="m 1034.3639,684.73783 c 0,10.59485 -4.7238,7.67347 -10.551,7.67347 -5.8271,0 -10.551,2.92138 -10.551,-7.67347 0,-10.59485 10.551,-30.69388 10.551,-30.69388 0,0 10.551,20.09905 10.551,30.69388 z"
       inkscape:connector-curvature="0"
       style="fill:#ff6584" />
    <path
       id="path1104"
       transform="translate(-93.02536,-198.5)"
       d="m 1028.6088,688.79149 c 0,4.81584 -2.1472,3.48794 -4.7959,3.48794 -2.6487,0 -4.7959,1.3279 -4.7959,-3.48794 0,-4.81584 4.7959,-13.95176 4.7959,-13.95176 0,0 4.7959,9.13592 4.7959,13.95176 z"
       inkscape:connector-curvature="0"
       style="opacity:0.1" />
    <path
       id="path1106"
       transform="translate(-93.02536,-198.5)"
       d="m 1037.0381,656.42815 c 0,0 2.192,-2.27928 2.1483,-4.51492"
       inkscape:connector-curvature="0"
       style="fill:#ff6584" />
    <path
       id="path1108"
       transform="translate(-93.02536,-198.5)"
       d="m 1014.5745,637.4359 c 0,0 -0.9151,-3.027 -2.8861,-4.08291"
       inkscape:connector-curvature="0"
       style="fill:#ff6584" />
    <path
       id="path1110"
       transform="translate(-93.02536,-198.5)"
       d="m 992.57452,596.4359 c 0,0 -0.9151,-3.027 -2.88614,-4.08291"
       inkscape:connector-curvature="0"
       style="fill:#ff6584" />
    <path
       id="path1112"
       transform="translate(-93.02536,-198.5)"
       d="m 1018.5745,651.4359 c 0,0 -0.9151,-3.027 -2.8861,-4.08291"
       inkscape:connector-curvature="0"
       style="fill:#ff6584" />
    <path
       id="path1114"
       transform="translate(-93.02536,-198.5)"
       d="m 1015.5745,602.4359 c 0,0 -0.9151,-3.027 -2.8861,-4.08291"
       inkscape:connector-curvature="0"
       style="fill:#ff6584" />
    <path
       id="path1116"
       transform="translate(-93.02536,-198.5)"
       d="m 1009.5745,620.4359 c 0,0 -0.9151,-3.027 -2.8861,-4.08291"
       inkscape:connector-curvature="0"
       style="fill:#ff6584" />
    <path
       id="path1118"
       transform="translate(-93.02536,-198.5)"
       d="m 1035.0381,687.42815 c 0,0 2.192,-2.27928 2.1483,-4.51492"
       inkscape:connector-curvature="0"
       style="fill:#ff6584" />
    <path
       id="path1120"
       transform="translate(-93.02536,-198.5)"
       d="m 1039.0381,670.42815 c 0,0 2.192,-2.27928 2.1483,-4.51492"
       inkscape:connector-curvature="0"
       style="fill:#ff6584" />
    <rect
       id="rect1122"
       transform="rotate(-18.43495,341.69413,859.41796)"
       height="1.00056"
       width="25.29822"
       y="671.54364"
       x="987.16382"
       style="fill:#ff6584" />
    <path
       id="path1124"
       transform="translate(-93.02536,-198.5)"
       d="m 1009.9121,668.52342 c 0.9008,3.52053 -0.6116,2.67955 -1.991,2.965 -1.3795,0.28545 -1.1082,1.55549 -3.0044,-1.9312 -1.3115,-2.41144 0.6116,-2.67955 1.9911,-2.965 1.3794,-0.28545 2.3893,-0.47281 3.0043,1.9312 z"
       inkscape:connector-curvature="0"
       style="fill:#ff6584" />
    <polygon
       id="polygon1126"
       points="315.628,106.016 311.888,106.844 366.685,189.544 574.068,502.544 818.988,502.544 574.728,277.957 574.727,277.956 552.908,257.894 552.712,257.943 543.975,250 543.553,249.877 544.008,249.704 451.089,164.271 361.353,81.762 "
       style="opacity:0.1;fill:#f2f2f2" />
    <circle
       id="circle1128"
       r="27"
       cy="92.543953"
       cx="334.78757"
       style="fill:#f2f2f2" />
  </g>
  <g
     id="g1277"
     transform="matrix(0.4078593,0,0,0.4078593,242.92321,-69.227051)"
     inkscape:export-xdpi="96"
     inkscape:export-ydpi="96">
    <polygon
       id="polygon1197"
       points="290.18103,383.40838 291.401,376.44842 452.10101,376.44842 452.31103,378.96838 454.49103,405.20843 454.48102,405.44842 466.49103,532.44842 378.85101,532.44842 367.49103,454.44842 362.49103,530.44842 272.49103,529.44842 282.05103,429.66839 290.18103,383.41839 "
       style="fill:#2f2e41" />
    <path
       id="path1199"
       d="m 222.88285,478.83064 c 9.28179,1.69101 18.96019,-8.76188 21.61758,-23.34779 1.16327,-6.38475 0.78778,-12.50277 -0.78019,-17.50611 l 1.42323,-8.40799 23.88334,-113.10923 c 0,0 43.98031,-87.97522 43.9791,-103.24828 -10e-4,-15.27287 -12.72223,-22.76282 -12.72223,-22.76282 l -17.21435,0.16096 -53.98264,131.84662 -9.72217,97.42982 -1.57289,13.36711 c -3.2316,4.12897 -5.74053,9.72145 -6.90332,16.10621 -2.65749,14.58572 2.71275,27.78048 11.99454,29.4715 z"
       inkscape:connector-curvature="0"
       style="fill:#ffb6b6" />
    <polygon
       id="polygon1201"
       points="381.99103,98.94842 329.99103,107.94842 326.49103,151.47992 397.99103,135.94842 "
       style="fill:#ffb6b6" />
    <polygon
       id="polygon1203"
       points="381.99103,98.94842 329.99103,107.94842 326.49103,151.47992 397.99103,135.94842 "
       style="opacity:0.1" />
    <path
       id="path1205"
       d="m 510.99121,212.9484 c 0,0 -37,-69 -44,-76 -3.11621,-3.11621 -8.01465,-3.15955 -12.49316,-2.25134 l -51.50684,-17.74866 -17.45801,-9.8092 -1.15039,18.66199 -57.31543,10.28748 c 0.31836,-11.38086 1.92383,-15.70972 1.92383,-15.70972 l -21,24.56946 -41,20 0.0225,0.18005 c -3.00879,1.05029 -5.86133,2.84741 -8.02246,5.81995 -8,11 -30,145 -30,145 l 47,10 6.39648,-40.13953 4.60352,36.13953 3.5,67.5 c 0,0 64,55 95,35 31,-20 69,-19 69,-19 l 0.94824,-31.28796 c 0.6748,-1.07861 1.05176,-1.71204 1.05176,-1.71204 l -1,-110.98425 v -29.5321 c 7.61816,10.61353 16.81152,19.74109 27.5,24.01636 35,14 28,-43 28,-43 z"
       inkscape:connector-curvature="0"
       style="fill:#e6e6e6" />
    <circle
       id="circle1207"
       r="47.838482"
       cy="66.619911"
       cx="350.55585"
       style="fill:#ffb6b6" />
    <path
       id="path1209"
       d="m 384.87476,80.13948 c 0,0 4.15987,-14.55954 13.51957,-13.51957 9.3597,1.03997 11.43964,-7.27977 9.3597,-11.43964 -2.07993,-4.15987 -6.2398,-24.95921 -6.2398,-24.95921 0,0 2.07993,-14.55954 -10.39967,-16.63947 -12.4796,-2.07993 -16.63947,-4.15987 -18.71941,-8.31974 -2.07993,-4.15987 -33.27894,-8.31974 -43.67861,-2.07993 -10.39967,6.2398 -18.71941,18.2117 -25.99917,21.58546 -7.27977,3.37375 -13.51957,9.61355 -9.3597,20.01322 4.15987,10.39967 10.19286,30.7392 10.19286,30.7392 0,0 10.60648,-3.70006 12.68641,2.53974 2.07993,6.2398 -6.2398,-2.07993 4.15987,-18.71941 10.39967,-16.63947 10.39967,-33.27894 27.03914,-27.03914 16.63947,6.2398 35.35888,4.15987 33.27894,16.63947 -2.07993,12.4796 4.15987,31.19901 4.15987,31.19901 z"
       inkscape:connector-curvature="0"
       style="fill:#2f2e41" />
    <g
       id="g1235">
      <path
         id="path1211"
         d="M 381.94946,459.38422 H 18.63322 C 8.35866,459.38422 0,451.0248 0,440.751 V 247.758 c 0,-10.2738 8.35866,-18.63322 18.63322,-18.63322 h 363.31624 c 10.27456,0 18.63322,8.35942 18.63322,18.63322 v 192.993 c 0,10.2738 -8.35866,18.63322 -18.63322,18.63322 z"
         inkscape:connector-curvature="0"
         style="fill:#ffffff" />
      <path
         id="path1213"
         d="M 381.94946,459.38422 H 18.63322 C 8.35866,459.38422 0,451.0248 0,440.751 V 247.758 c 0,-10.2738 8.35866,-18.63322 18.63322,-18.63322 h 363.31624 c 10.27456,0 18.63322,8.35942 18.63322,18.63322 v 192.993 c 0,10.2738 -8.35866,18.63322 -18.63322,18.63322 z M 18.63322,232.23639 c -8.55846,0 -15.52161,6.96315 -15.52161,15.52161 v 192.993 c 0,8.55846 6.96315,15.52161 15.52161,15.52161 h 363.31624 c 8.55846,0 15.52161,-6.96315 15.52161,-15.52161 V 247.758 c 0,-8.55846 -6.96315,-15.52161 -15.52161,-15.52161 z"
         inkscape:connector-curvature="0"
         style="fill:#3f3d56" />
      <circle
         id="circle1215"
         r="4.6674199"
         cy="247.79446"
         cx="353.90848"
         style="fill:#3f3d56" />
      <circle
         id="circle1217"
         r="4.6674199"
         cy="247.79446"
         cx="366.35492"
         style="fill:#3f3d56" />
      <circle
         id="circle1219"
         r="4.6674199"
         cy="247.79446"
         cx="378.80139"
         style="fill:#3f3d56" />
      <path
         id="path1221"
         d="m 26.44872,323.2511 c -1.28688,0 -2.33371,1.04683 -2.33371,2.33371 0,0.62749 0.24234,1.20788 0.68218,1.63633 0.44365,0.45428 1.0248,0.69738 1.65153,0.69738 h 349.24104 c 1.28688,0 2.33371,-1.04683 2.33371,-2.33371 0,-0.62749 -0.24234,-1.20788 -0.68218,-1.63633 -0.44365,-0.45428 -1.0248,-0.69738 -1.65153,-0.69738 z"
         inkscape:connector-curvature="0"
         style="fill:#e6e6e6" />
      <path
         id="path1223"
         d="m 332.12717,322.4732 v 6.22323 H 26.44872 c -0.85567,0 -1.63358,-0.34233 -2.19365,-0.91797 -0.57574,-0.56007 -0.91797,-1.33797 -0.91797,-2.19365 0,-1.71144 1.40026,-3.11161 3.11161,-3.11161 z"
         inkscape:connector-curvature="0"
         style="fill:#1193f3" />
      <path
         id="path1225"
         d="m 371.80025,310.80464 h -31.11614 c -3.43144,0 -6.22323,-2.79103 -6.22323,-6.22323 0,-3.4322 2.79179,-6.22323 6.22323,-6.22323 h 31.11614 c 3.43144,0 6.22323,2.79103 6.22323,6.22323 0,3.4322 -2.79179,6.22323 -6.22323,6.22323 z"
         inkscape:connector-curvature="0"
         style="fill:#e6e6e6" />
      <path
         id="path1227"
         d="M 167.98953,278.1327 H 28.78243 c -3.43144,0 -6.22323,-2.79103 -6.22323,-6.22323 0,-3.4322 2.79179,-6.22323 6.22323,-6.22323 h 139.2071 c 3.43144,0 6.22323,2.79103 6.22323,6.22323 0,3.4322 -2.79179,6.22323 -6.22323,6.22323 z"
         inkscape:connector-curvature="0"
         style="fill:#e6e6e6" />
      <path
         id="path1229"
         d="m 26.44872,393.26242 c -1.28688,0 -2.33371,1.04683 -2.33371,2.33371 0,0.62749 0.24234,1.20788 0.68218,1.63633 0.44365,0.45428 1.0248,0.69738 1.65153,0.69738 h 349.24104 c 1.28688,0 2.33371,-1.04683 2.33371,-2.33371 0,-0.62749 -0.24234,-1.20788 -0.68218,-1.63633 -0.44365,-0.45428 -1.0248,-0.69738 -1.65153,-0.69738 z"
         inkscape:connector-curvature="0"
         style="fill:#e6e6e6" />
      <path
         id="path1231"
         d="m 212.33003,392.48451 v 6.22323 H 26.44872 c -0.85567,0 -1.63358,-0.34233 -2.19365,-0.91797 -0.57574,-0.56007 -0.91797,-1.33797 -0.91797,-2.19365 0,-1.71144 1.40026,-3.11161 3.11161,-3.11161 z"
         inkscape:connector-curvature="0"
         style="fill:#1193f3" />
      <path
         id="path1233"
         d="m 371.80025,380.81596 h -31.11614 c -3.43144,0 -6.22323,-2.79103 -6.22323,-6.22323 0,-3.4322 2.79179,-6.22323 6.22323,-6.22323 h 31.11614 c 3.43144,0 6.22323,2.79103 6.22323,6.22323 0,3.4322 -2.79179,6.22323 -6.22323,6.22323 z"
         inkscape:connector-curvature="0"
         style="fill:#e6e6e6" />
    </g>
    <g
       id="g1241">
      <ellipse
         id="ellipse1237"
         ry="47.69976"
         rx="48.726429"
         cy="70.440857"
         cx="426.27356"
         style="fill:#1193f3" />
      <path
         id="path1239"
         d="m 442.81136,46.3808 c -6.487,11.81215 -12.97405,23.62439 -19.46106,35.43659 -4.13442,-7.30499 -8.24624,-14.62285 -12.39083,-21.92211 -1.43136,-2.5209 -5.32473,-0.25351 -3.88976,2.27368 4.80448,8.46149 9.55919,16.95111 14.36367,25.41259 0.82147,1.44676 3.07677,1.48035 3.8898,0 7.12599,-12.9757 14.25199,-25.95141 21.37798,-38.92707 1.39635,-2.54258 -2.4924,-4.81822 -3.8898,-2.27368 z"
         inkscape:connector-curvature="0"
         style="fill:#ffffff" />
    </g>
    <path
       id="path1243"
       d="m 493.53827,196.17181 -48.54724,-23.22339 c 0,0 -1.94983,-15.5437 -11.05402,-21.08789 -1.54779,-3.6925 -3.32855,-7.74908 -4.94598,-10.96332 -4,-7.94879 2,-22.94879 -3,-22.94879 -5,0 -12.39122,15.77543 -12,20 0.30031,3.24292 2.98059,8.90472 3.5343,13.8609 -6.09709,2.29949 -11.01564,6.24084 -14.24964,9.37903 -2.79865,2.71575 -3.8385,6.76755 -2.74475,10.51073 3.16948,10.84703 11.09153,33.24933 22.46008,33.24933 15,0 19,-3 19,-3 0,0 31,39 54,42 23,3 -2.45276,-47.77661 -2.45276,-47.77661 z"
       inkscape:connector-curvature="0"
       style="fill:#ffb6b6" />
  </g>
</svg>
